<svg xmlns="http://www.w3.org/2000/svg" data-name="Warstwa 1" viewBox="0 0 24 30" x="0px" y="0px"><title>Arrows</title><path d="M21,12a.5.5,0,0,1-.5.5H4.79l5.05,4.63a.51.51,0,0,1,0,.71.51.51,0,0,1-.71,0l-6-5.5h0a.38.38,0,0,1-.09-.13l0,0a.52.52,0,0,1,0-.4l0,0a.38.38,0,0,1,.09-.13h0l6-5.5a.5.5,0,0,1,.71,0,.51.51,0,0,1,0,.71l-5,4.63H20.5A.5.5,0,0,1,21,12Z"/><text x="0" y="39" fill="#000000" font-size="5px" font-weight="bold" font-family="'Helvetica Neue', Helvetica, Arial-Unicode, Arial, Sans-serif">Created by Martin</text><text x="0" y="44" fill="#000000" font-size="5px" font-weight="bold" font-family="'Helvetica Neue', Helvetica, Arial-Unicode, Arial, Sans-serif">from the Noun Project</text></svg>